<svg width="50" height="50" viewBox="0 0 50 50" fill="none" xmlns="http://www.w3.org/2000/svg">
<rect width="50" height="50" rx="1" fill="white"/>
<path d="M36.6663 21.25H35.3L32.4662 13.45C32.2318 12.8069 31.8058 12.2512 31.2456 11.8579C30.6855 11.4645 30.0182 11.2523 29.3337 11.25H26.6663C25.75 11.25 25 12 25 12.9175C25 13.8338 25.75 14.5838 26.6663 14.5838H29.3337L31.7663 21.25H23.75L23.15 19.5837H23.3C24.2163 19.5837 24.9662 18.8337 24.9662 17.9175C24.9662 17 24.2163 16.25 23.3 16.25H18.3337C17.4162 16.25 16.6663 17 16.6663 17.9175C16.6663 18.8337 17.4162 19.5837 18.3337 19.5837H19.5837L22.6163 27.9175H21.5C20.7662 24.2 17.65 21.45 13.75 21.2675C9.08375 21.0337 5 24.9175 5 29.5837C5 34.25 8.66625 37.9175 13.3337 37.9175C17.4337 37.9175 20.75 35.1 21.5 31.25H28.5C29.2337 34.9675 32.35 37.7175 36.25 37.9C40.9163 38.1175 45 34.25 45 29.5675C45 24.9175 41.3338 21.25 36.6663 21.25ZM15 31.25H18.0338C17.3338 33.3 15.3663 34.7175 13 34.5675C10.5163 34.4175 8.45 32.3175 8.33375 29.8175C8.21625 26.9 10.45 24.5837 13.3337 24.5837C14.3683 24.574 15.3796 24.891 16.2235 25.4896C17.0674 26.0882 17.7009 26.9378 18.0338 27.9175H15C14.0838 27.9175 13.3337 28.6675 13.3337 29.5837C13.3337 30.5 14.0838 31.25 15 31.25ZM28.5 27.9175H26.1663L24.95 24.5837H30C29.2459 25.5622 28.7321 26.7041 28.5 27.9175ZM36.4663 34.5837C33.9 34.4837 31.7338 32.3 31.6663 29.7175C31.6338 28.1175 32.3162 26.7175 33.4162 25.7837L34.45 28.6175C34.524 28.8236 34.638 29.013 34.7855 29.1749C34.9329 29.3367 35.1108 29.4679 35.3091 29.5608C35.5074 29.6537 35.722 29.7066 35.9408 29.7163C36.1595 29.726 36.378 29.6925 36.5838 29.6175C36.7898 29.5435 36.9792 29.4295 37.1411 29.282C37.303 29.1346 37.4342 28.9567 37.5271 28.7584C37.62 28.5601 37.6728 28.3455 37.6826 28.1267C37.6923 27.908 37.6587 27.6895 37.5837 27.4837L36.5337 24.6L36.55 24.5837C37.2182 24.5609 37.8841 24.6737 38.5075 24.9154C39.1309 25.1571 39.6989 25.5227 40.177 25.99C40.6552 26.4573 41.0337 27.0167 41.2897 27.6344C41.5456 28.252 41.6737 28.9152 41.6663 29.5837C41.6663 32.45 39.3663 34.6837 36.4663 34.5837Z" fill="url(#paint0_linear_1401_124)"/>
<defs>
<linearGradient id="paint0_linear_1401_124" x1="25.625" y1="9.375" x2="25" y2="47.9175" gradientUnits="userSpaceOnUse">
<stop stop-color="#E9AA08"/>
<stop offset="1" stop-color="#D7860D"/>
</linearGradient>
</defs>
</svg>
